<svg id="Layer_1" data-name="Layer 1" xmlns="http://www.w3.org/2000/svg" viewBox="0 0 493.55 128.98"><defs><style>.cls-1{fill:#e84e1b;}.cls-2{fill:#b2b2b2;}</style></defs><title>logo</title><path class="cls-1" d="M109.21,152.24L49.77,70.93v81.31H23.23V27.57H50.52l57.76,78.32V27.57h26.54V152.24H109.21Z" transform="translate(-23.23 -25.51)"/><path class="cls-1" d="M147.94,90c0-37.57,27.48-64.49,65.24-64.49,37.57,0,65,26.92,65,64.49s-27.48,64.49-65,64.49C175.42,154.49,147.94,127.57,147.94,90Zm103,0c0-23.37-14.77-40.94-37.76-40.94C190,49.06,175.23,66.63,175.23,90c0,23.18,14.77,40.94,37.95,40.94C236.17,130.94,250.94,113.18,250.94,90Z" transform="translate(-23.23 -25.51)"/><path class="cls-1" d="M326.35,152.24l-48-124.68h30.09L343,123.27l34.58-95.7h30.09l-48,124.68H326.35Z" transform="translate(-23.23 -25.51)"/><path class="cls-2" d="M486.68,152.24l-7.85-21.12H425.37l-7.85,21.12H387.43l48-124.68h33.27l48,124.68H486.68ZM452.1,54.11l-19.44,53.65h38.88Z" transform="translate(-23.23 -25.51)"/></svg>